<svg width="103" height="30" viewBox="0 0 103 30" fill="none" xmlns="http://www.w3.org/2000/svg">
<path d="M44.2578 9.625L47.9766 18.9062L51.6953 9.625H53.6406V21H52.1406V16.5703L52.2812 11.7891L48.5469 21H47.3984L43.6719 11.8125L43.8203 16.5703V21H42.3203V9.625H44.2578ZM61.2812 21C61.1979 20.8333 61.1302 20.5365 61.0781 20.1094C60.4062 20.8073 59.6042 21.1562 58.6719 21.1562C57.8385 21.1562 57.1536 20.9219 56.6172 20.4531C56.0859 19.9792 55.8203 19.3802 55.8203 18.6562C55.8203 17.776 56.1536 17.0938 56.8203 16.6094C57.4922 16.1198 58.4349 15.875 59.6484 15.875H61.0547V15.2109C61.0547 14.7057 60.9036 14.3047 60.6016 14.0078C60.2995 13.7057 59.8542 13.5547 59.2656 13.5547C58.75 13.5547 58.3177 13.6849 57.9688 13.9453C57.6198 14.2057 57.4453 14.5208 57.4453 14.8906H55.9922C55.9922 14.4688 56.1406 14.0625 56.4375 13.6719C56.7396 13.276 57.1458 12.9635 57.6562 12.7344C58.1719 12.5052 58.737 12.3906 59.3516 12.3906C60.3255 12.3906 61.0885 12.6354 61.6406 13.125C62.1927 13.6094 62.4792 14.2786 62.5 15.1328V19.0234C62.5 19.7995 62.599 20.4167 62.7969 20.875V21H61.2812ZM58.8828 19.8984C59.3359 19.8984 59.7656 19.7812 60.1719 19.5469C60.5781 19.3125 60.8724 19.0078 61.0547 18.6328V16.8984H59.9219C58.151 16.8984 57.2656 17.4167 57.2656 18.4531C57.2656 18.9062 57.4167 19.2604 57.7188 19.5156C58.0208 19.7708 58.4089 19.8984 58.8828 19.8984ZM66.1328 12.5469L66.1797 13.6094C66.8255 12.7969 67.6693 12.3906 68.7109 12.3906C70.4974 12.3906 71.3984 13.3984 71.4141 15.4141V21H69.9688V15.4062C69.9635 14.7969 69.8229 14.3464 69.5469 14.0547C69.276 13.763 68.8516 13.6172 68.2734 13.6172C67.8047 13.6172 67.3932 13.7422 67.0391 13.9922C66.6849 14.2422 66.4089 14.5703 66.2109 14.9766V21H64.7656V12.5469H66.1328ZM73.25 16.7031C73.25 15.3854 73.5547 14.3385 74.1641 13.5625C74.7734 12.7812 75.5807 12.3906 76.5859 12.3906C77.6172 12.3906 78.4219 12.7552 79 13.4844L79.0703 12.5469H80.3906V20.7969C80.3906 21.8906 80.0651 22.7526 79.4141 23.3828C78.7682 24.013 77.8984 24.3281 76.8047 24.3281C76.1953 24.3281 75.599 24.1979 75.0156 23.9375C74.4323 23.6771 73.987 23.3203 73.6797 22.8672L74.4297 22C75.0495 22.7656 75.8073 23.1484 76.7031 23.1484C77.4062 23.1484 77.9531 22.9505 78.3438 22.5547C78.7396 22.1589 78.9375 21.6016 78.9375 20.8828V20.1562C78.3594 20.8229 77.5703 21.1562 76.5703 21.1562C75.5807 21.1562 74.7786 20.7578 74.1641 19.9609C73.5547 19.1641 73.25 18.0781 73.25 16.7031ZM74.7031 16.8672C74.7031 17.8203 74.8984 18.5703 75.2891 19.1172C75.6797 19.6589 76.2266 19.9297 76.9297 19.9297C77.8411 19.9297 78.5104 19.5156 78.9375 18.6875V14.8281C78.4948 14.0208 77.8307 13.6172 76.9453 13.6172C76.2422 13.6172 75.6927 13.8906 75.2969 14.4375C74.901 14.9844 74.7031 15.7943 74.7031 16.8672ZM84.1484 21H82.7031V9H84.1484V21ZM88.0391 21H86.5938V12.5469H88.0391V21ZM86.4766 10.3047C86.4766 10.0703 86.5469 9.8724 86.6875 9.71094C86.8333 9.54948 87.0469 9.46875 87.3281 9.46875C87.6094 9.46875 87.8229 9.54948 87.9688 9.71094C88.1146 9.8724 88.1875 10.0703 88.1875 10.3047C88.1875 10.5391 88.1146 10.7344 87.9688 10.8906C87.8229 11.0469 87.6094 11.125 87.3281 11.125C87.0469 11.125 86.8333 11.0469 86.6875 10.8906C86.5469 10.7344 86.4766 10.5391 86.4766 10.3047ZM95.2812 18.7578C95.2812 18.3672 95.1328 18.0651 94.8359 17.8516C94.5443 17.6328 94.0312 17.4453 93.2969 17.2891C92.5677 17.1328 91.987 16.9453 91.5547 16.7266C91.1276 16.5078 90.8099 16.2474 90.6016 15.9453C90.3984 15.6432 90.2969 15.2839 90.2969 14.8672C90.2969 14.1745 90.5885 13.5885 91.1719 13.1094C91.7604 12.6302 92.5104 12.3906 93.4219 12.3906C94.3802 12.3906 95.1562 12.638 95.75 13.1328C96.349 13.6276 96.6484 14.2604 96.6484 15.0312H95.1953C95.1953 14.6354 95.026 14.2943 94.6875 14.0078C94.3542 13.7214 93.9323 13.5781 93.4219 13.5781C92.8958 13.5781 92.4844 13.6927 92.1875 13.9219C91.8906 14.151 91.7422 14.4505 91.7422 14.8203C91.7422 15.1693 91.8802 15.4323 92.1562 15.6094C92.4323 15.7865 92.9297 15.9557 93.6484 16.1172C94.3724 16.2786 94.9583 16.4714 95.4062 16.6953C95.8542 16.9193 96.1849 17.1901 96.3984 17.5078C96.6172 17.8203 96.7266 18.2031 96.7266 18.6562C96.7266 19.4115 96.4245 20.0182 95.8203 20.4766C95.2161 20.9297 94.4323 21.1562 93.4688 21.1562C92.7917 21.1562 92.1927 21.0365 91.6719 20.7969C91.151 20.5573 90.7422 20.224 90.4453 19.7969C90.1536 19.3646 90.0078 18.8984 90.0078 18.3984H91.4531C91.4792 18.8828 91.6719 19.2682 92.0312 19.5547C92.3958 19.8359 92.875 19.9766 93.4688 19.9766C94.0156 19.9766 94.4531 19.8672 94.7812 19.6484C95.1146 19.4245 95.2812 19.1276 95.2812 18.7578ZM100.57 10.5V12.5469H102.148V13.6641H100.57V18.9062C100.57 19.2448 100.641 19.5 100.781 19.6719C100.922 19.8385 101.161 19.9219 101.5 19.9219C101.667 19.9219 101.896 19.8906 102.188 19.8281V21C101.807 21.1042 101.438 21.1562 101.078 21.1562C100.432 21.1562 99.9453 20.9609 99.6172 20.5703C99.2891 20.1797 99.125 19.625 99.125 18.9062V13.6641H97.5859V12.5469H99.125V10.5H100.57Z" fill="#888888"/>
<path d="M4.28568 11.1111C2.1379 11.1111 0.39679 12.8523 0.39679 15C0.39679 17.1478 2.1379 18.8889 4.28568 18.8889C6.43346 18.8889 8.17458 17.1478 8.17458 15C8.17458 12.8523 6.43346 11.1111 4.28568 11.1111ZM4.28568 17.3016C3.01458 17.3016 1.9841 16.2711 1.9841 15C1.9841 13.7289 3.01458 12.6985 4.28568 12.6985C5.55679 12.6985 6.58727 13.7289 6.58727 15C6.58727 16.2711 5.55686 17.3016 4.28568 17.3016Z" fill="#888888"/>
<path d="M28.8096 14.2064H10.873C10.4347 14.2064 10.0794 14.5617 10.0794 15C10.0794 15.4384 10.4347 15.7937 10.873 15.7937H28.8096C29.2479 15.7937 29.6032 15.4384 29.6032 15C29.6032 14.5617 29.2479 14.2064 28.8096 14.2064Z" fill="#888888"/>
<path d="M4.28568 0C2.1379 0 0.39679 1.74111 0.39679 3.88889C0.39679 6.03667 2.1379 7.77778 4.28568 7.77778C6.43346 7.77778 8.17458 6.03667 8.17458 3.88889C8.17458 1.74111 6.43346 0 4.28568 0ZM4.28568 6.19048C3.01458 6.19048 1.9841 5.16 1.9841 3.88889C1.9841 2.61779 3.01458 1.58731 4.28568 1.58731C5.55679 1.58731 6.58727 2.61779 6.58727 3.88889C6.58727 5.16 5.55686 6.19048 4.28568 6.19048Z" fill="#888888"/>
<path d="M10.873 4.68255H28.8096C29.2479 4.68255 29.6032 4.32723 29.6032 3.8889C29.6032 3.45056 29.2479 3.09525 28.8096 3.09525H10.873C10.4347 3.09525 10.0794 3.45056 10.0794 3.8889C10.0794 4.32723 10.4347 4.68255 10.873 4.68255Z" fill="#888888"/>
<path d="M4.28568 22.2222C2.1379 22.2222 0.39679 23.9633 0.39679 26.1111C0.39679 28.2589 2.1379 30 4.28568 30C6.43346 30 8.17458 28.2589 8.17458 26.1111C8.17458 23.9633 6.43346 22.2222 4.28568 22.2222ZM6.58727 26.1111C6.58727 27.3822 5.55679 28.4127 4.28568 28.4127C3.01458 28.4127 1.9841 27.3822 1.9841 26.1111C1.9841 24.84 3.01458 23.8095 4.28568 23.8095C5.55679 23.8095 6.58727 24.84 6.58727 26.1111Z" fill="#888888"/>
<path d="M28.8096 25.3174H10.873C10.4347 25.3174 10.0794 25.6728 10.0794 26.1111C10.0794 26.5494 10.4347 26.9048 10.873 26.9048H28.8096C29.2479 26.9048 29.6032 26.5494 29.6032 26.1111C29.6032 25.6728 29.2479 25.3174 28.8096 25.3174Z" fill="#888888"/>
</svg>
